<svg xmlns="http://www.w3.org/2000/svg" viewBox="0 0 180 180"><defs><style>.cls-1{fill:none;}</style></defs><title>Apple_Touch_Icon</title><g id="Layer_2" data-name="Layer 2"><g id="Layer_1-2" data-name="Layer 1"><path d="M71,110.07a7.5,7.5,0,0,0-10.47-1.76h0a7.5,7.5,0,0,0-1.76,10.47L88.83,161a7.5,7.5,0,0,0,12.23-8.71Z"/><path d="M63.15,88.69l42.23-30.07a7.5,7.5,0,0,0,1.76-10.47h0A7.5,7.5,0,0,0,96.68,46.4L54.45,76.46a7.5,7.5,0,1,0,8.71,12.23Z"/><path d="M104.75,16.27a39.3,39.3,0,0,0-29.34,7.33l-29,20.67a7.84,7.84,0,0,0,9.1,12.78L84.79,36.17a21.39,21.39,0,0,1,17.14-3.89A21.73,21.73,0,0,1,120,57.69a21.67,21.67,0,0,1-9.39,14.78L80.94,93.61a7.39,7.39,0,0,0-1.73,10.31l30.24,42.47a7.84,7.84,0,0,0,10.94,1.84l.58-.41a7.84,7.84,0,0,0,1.84-10.94l-22.79-32a4.54,4.54,0,0,1,1.07-6.33l18.37-13.08q13.64-9.71,16.63-25.19a35.37,35.37,0,0,0-6.13-28.89A35.54,35.54,0,0,0,104.75,16.27Z"/><rect class="cls-1" width="180" height="180"/></g></g></svg>