<svg xmlns="http://www.w3.org/2000/svg" viewBox="0 0 181 181"><defs><style>.cls-1{fill:#1d1d1b;}</style></defs><g id="Layer_2" data-name="Layer 2"><g id="Layer_1-2" data-name="Layer 1"><path class="cls-1" d="M109.09,181H91c-7.17,0-14-4.3-16.15-11.13A16.52,16.52,0,0,1,90.5,148.06h27.76a29.8,29.8,0,0,0,29.8-29.8V62.74a29.8,29.8,0,0,0-29.8-29.8H62.74a29.8,29.8,0,0,0-29.8,29.8V165.07A15.92,15.92,0,0,1,17,181h-.46A16.36,16.36,0,0,1,0,164.12V54.77c0-11,2.79-22,9-31.06A53.5,53.5,0,0,1,53.49,0h72.74c11,0,22,2.79,31.06,9A53.47,53.47,0,0,1,181,53.49v72.74c0,11-2.79,22-9,31.06A53.5,53.5,0,0,1,127.51,181Z"/><path class="cls-1" d="M116.61,90.51A16.49,16.49,0,0,1,100.16,107H80.85a16.46,16.46,0,0,1,0-32.91h19.31A16.5,16.5,0,0,1,116.61,90.51Z"/></g></g></svg>